<?xml version="1.0" standalone="no"?>
<!DOCTYPE svg PUBLIC "-//W3C//DTD SVG 20010904//EN"
 "http://www.w3.org/TR/2001/REC-SVG-20010904/DTD/svg10.dtd">
<svg version="1.0" xmlns="http://www.w3.org/2000/svg"
 width="250.000000pt" height="250.000000pt" viewBox="0 0 250.000000 250.000000"
 preserveAspectRatio="xMidYMid meet">
<metadata>
Created by potrace 1.11, written by Peter Selinger 2001-2013
</metadata>
<g transform="translate(0.000000,250.000000) scale(0.100000,-0.100000)"
fill="#000000" stroke="none">
<path d="M1040 2368 c-219 -47 -379 -128 -532 -268 -240 -219 -363 -513 -354
-845 11 -388 215 -726 558 -922 256 -147 571 -180 859 -93 346 106 615 371
723 713 42 134 46 158 52 306 5 136 -7 222 -47 354 -54 178 -143 324 -278 457
-214 211 -476 318 -781 317 -73 0 -146 -7 -200 -19z m422 -82 c258 -56 476
-202 629 -424 122 -176 180 -376 174 -597 -3 -110 -5 -125 -26 -220 -71 -316
-334 -605 -649 -714 -125 -43 -222 -59 -357 -56 -139 2 -245 23 -363 71 -229
93 -403 251 -525 477 -161 301 -146 712 38 1002 17 27 34 52 37 55 3 3 18 23
34 44 55 74 172 178 261 234 103 63 259 121 375 137 25 4 47 8 48 10 10 10
258 -5 324 -19z"/>
<path d="M925 2043 c-61 -31 -182 -151 -216 -213 -65 -118 -99 -253 -95 -375
1 -56 9 -85 36 -143 28 -62 40 -77 74 -94 23 -11 53 -32 69 -46 46 -44 33
-126 -37 -229 -32 -46 -32 -50 2 -90 l28 -32 44 28 c98 63 119 51 130 -72 7
-75 14 -97 55 -174 56 -106 80 -137 100 -130 12 5 14 39 14 204 l-1 198 -33
30 c-66 59 -77 125 -22 125 33 -1 98 -33 130 -66 37 -37 52 -36 96 5 88 82
199 80 155 -4 -14 -27 -62 -75 -76 -75 -11 0 -9 -393 2 -410 16 -23 62 36 116
147 38 80 44 100 44 157 0 53 4 70 20 86 27 27 37 26 101 -13 l54 -32 28 31
c31 36 33 51 13 73 -30 34 -76 134 -76 168 0 59 21 86 96 122 34 16 45 30 75
93 32 69 34 78 33 178 -2 208 -94 396 -249 512 -56 42 -121 76 -129 67 -2 -2
-16 -41 -30 -87 l-26 -83 37 -32 c78 -68 163 -178 163 -209 0 -8 5 -19 11 -25
5 -5 10 -38 10 -71 1 -128 -78 -229 -254 -327 -37 -20 -91 -56 -120 -79 l-52
-42 -29 28 c-32 31 -82 64 -175 117 -80 45 -159 124 -189 189 -54 119 -19 233
117 375 l80 83 -26 82 c-14 45 -31 82 -37 82 -6 -1 -33 -13 -61 -27z"/>
</g>
</svg>
